{
  "accessors": [
    {
      "bufferView": 2,
      "componentType": 5126,
      "count": 7614,
      "max": [
        5.184020042419434,
        0.29965001344680786,
        13.091620445251465
      ],
      "min": [
        -4.805759906768799,
        -1.3419300317764282,
        -13.434379577636719
      ],
      "type": "VEC3"
    },
    {
      "bufferView": 2,
      "byteOffset": 91368,
      "componentType": 5126,
      "count": 7614,
      "max": [
        1.0,
        1.0,
        1.0
      ],
      "min": [
        -0.9999989867210388,
        -1.0,
        -1.0
      ],
      "type": "VEC3"
    },
    {
      "bufferView": 3,
      "componentType": 5126,
      "count": 7614,
      "max": [
        1.0,
        0.9999913573265076,
        0.999271810054779,
        1.0
      ],
      "min": [
        -0.9999895095825195,
        -0.9999474287033081,
        -0.9999637007713318,
        -1.0
      ],
      "type": "VEC4"
    },
    {
      "bufferView": 1,
      "componentType": 5126,
      "count": 7614,
      "max": [
        0.8508999943733215,
        0.9998999834060669
      ],
      "min": [
        -0.06525000184774399,
        0.10397999733686447
      ],
      "type": "VEC2"
    },
    {
      "bufferView": 1,
      "byteOffset": 60912,
      "componentType": 5126,
      "count": 7614,
      "max": [
        0.8508999943733215,
        0.9998999834060669
      ],
      "min": [
        -0.06525000184774399,
        0.10397999733686447
      ],
      "type": "VEC2"
    },
    {
      "bufferView": 1,
      "byteOffset": 121824,
      "componentType": 5126,
      "count": 7614,
      "max": [
        0.8508999943733215,
        0.9998999834060669
      ],
      "min": [
        -0.06525000184774399,
        0.10397999733686447
      ],
      "type": "VEC2"
    },
    {
      "bufferView": 0,
      "componentType": 5125,
      "count": 42498,
      "type": "SCALAR"
    }
  ],
  "asset": {
    "extras": {
      "author": "RachelRayManis (https://sketchfab.com/avidlebon)",
      "license": "CC-BY-NC-SA-4.0 (http://creativecommons.org/licenses/by-nc-sa/4.0/)",
      "source": "https://sketchfab.com/3d-models/flying-v-electric-guitar-8d946a3a7f0f4b69a219366792485b0d",
      "title": "Flying V Electric Guitar"
    },
    "generator": "Sketchfab-12.66.0",
    "version": "2.0"
  },
  "bufferViews": [
    {
      "buffer": 0,
      "byteLength": 169992,
      "name": "floatBufferViews",
      "target": 34963
    },
    {
      "buffer": 0,
      "byteLength": 182736,
      "byteOffset": 169992,
      "byteStride": 8,
      "name": "floatBufferViews",
      "target": 34962
    },
    {
      "buffer": 0,
      "byteLength": 182736,
      "byteOffset": 352728,
      "byteStride": 12,
      "name": "floatBufferViews",
      "target": 34962
    },
    {
      "buffer": 0,
      "byteLength": 121824,
      "byteOffset": 535464,
      "byteStride": 16,
      "name": "floatBufferViews",
      "target": 34962
    }
  ],
  "buffers": [
    {
      "byteLength": 657288,
      "uri": "scene.bin"
    }
  ],
  "images": [
    {
      "uri": "textures/GutarUpperTexture_baseColor.png"
    },
    {
      "uri": "textures/GutarUpperTexture_normal.png"
    }
  ],
  "materials": [
    {
      "doubleSided": true,
      "name": "GutarUpperTexture",
      "normalTexture": {
        "index": 1
      },
      "pbrMetallicRoughness": {
        "baseColorTexture": {
          "index": 0
        },
        "metallicFactor": 0.0,
        "roughnessFactor": 0.6
      }
    }
  ],
  "meshes": [
    {
      "name": "Guitar",
      "primitives": [
        {
          "attributes": {
            "NORMAL": 1,
            "POSITION": 0,
            "TANGENT": 2,
            "TEXCOORD_0": 3,
            "TEXCOORD_1": 4,
            "TEXCOORD_2": 5
          },
          "indices": 6,
          "material": 0,
          "mode": 4
        }
      ]
    }
  ],
  "nodes": [
    {
      "children": [
        1
      ],
      "matrix": [
        0.08605737239122391,
        0.0,
        0.0,
        0.0,
        0.0,
        1.910857525349561e-17,
        -0.08605737239122391,
        0.0,
        0.0,
        0.08605737239122391,
        1.910857525349561e-17,
        0.0,
        0.0,
        0.0,
        0.0,
        1.0
      ],
      "name": "Sketchfab_model"
    },
    {
      "children": [
        2,
        4,
        6
      ],
      "name": "Root"
    },
    {
      "children": [
        3
      ],
      "matrix": [
        1.0,
        0.0,
        0.0,
        0.0,
        0.0,
        1.0,
        0.0,
        0.0,
        0.0,
        0.0,
        1.0,
        0.0,
        0.24504000000000004,
        -0.06606000000000002,
        -0.8414900000000001,
        1.0
      ],
      "name": "Guitar"
    },
    {
      "mesh": 0,
      "name": "Guitar"
    },
    {
      "children": [
        5
      ],
      "matrix": [
        0.79761,
        0.5025099999999999,
        0.33364000000000005,
        0.0,
        -0.5914,
        0.5427000000000001,
        0.59643,
        0.0,
        0.11865000000000002,
        -0.6730300000000001,
        0.7300400000000001,
        0.0,
        0.8754000000000001,
        -11.481359999999999,
        4.3860600000000005,
        1.0
      ],
      "name": "Sun"
    },
    {
      "name": "Sun"
    },
    {
      "children": [
        7
      ],
      "matrix": [
        0.79761,
        0.48747000000000007,
        -0.35524,
        0.0,
        -0.5914,
        0.7478500000000001,
        -0.30161000000000004,
        0.0,
        0.11865000000000002,
        0.45065,
        0.8847800000000001,
        0.0,
        -0.5357400000000001,
        9.65057,
        6.479120000000001,
        1.0
      ],
      "name": "Sun.001"
    },
    {
      "name": "Sun.001"
    }
  ],
  "samplers": [
    {
      "magFilter": 9729,
      "minFilter": 9987,
      "wrapS": 10497,
      "wrapT": 10497
    }
  ],
  "scene": 0,
  "scenes": [
    {
      "name": "Sketchfab_Scene",
      "nodes": [
        0
      ]
    }
  ],
  "textures": [
    {
      "sampler": 0,
      "source": 0
    },
    {
      "sampler": 0,
      "source": 1
    }
  ]
}
