{
  "accessors": [
    {
      "bufferView": 2,
      "componentType": 5126,
      "count": 1281,
      "max": [
        0.5808809995651245,
        -0.40693399310112,
        0.37003999948501587
      ],
      "min": [
        0.4100629985332489,
        -0.5826560258865356,
        0.1338679939508438
      ],
      "type": "VEC3"
    },
    {
      "bufferView": 2,
      "byteOffset": 15372,
      "componentType": 5126,
      "count": 1281,
      "max": [
        1.0,
        1.0,
        0.9999079704284668
      ],
      "min": [
        -1.0,
        -1.0,
        -1.0
      ],
      "type": "VEC3"
    },
    {
      "bufferView": 1,
      "componentType": 5126,
      "count": 1281,
      "max": [
        0.9904419779777527,
        0.9608039855957031
      ],
      "min": [
        0.009557999670505524,
        0.17315000295639038
      ],
      "type": "VEC2"
    },
    {
      "bufferView": 0,
      "componentType": 5125,
      "count": 4761,
      "type": "SCALAR"
    },
    {
      "bufferView": 2,
      "byteOffset": 30744,
      "componentType": 5126,
      "count": 722,
      "max": [
        0.6064779758453369,
        -0.42779698967933655,
        0.26154398918151855
      ],
      "min": [
        0.3951919972896576,
        -0.5293520092964172,
        0.07146400213241577
      ],
      "type": "VEC3"
    },
    {
      "bufferView": 2,
      "byteOffset": 39408,
      "componentType": 5126,
      "count": 722,
      "max": [
        1.0,
        0.9902307987213135,
        0.9831702709197998
      ],
      "min": [
        -0.9996488690376282,
        -0.9874250888824463,
        -0.9719113111495972
      ],
      "type": "VEC3"
    },
    {
      "bufferView": 1,
      "byteOffset": 10248,
      "componentType": 5126,
      "count": 722,
      "max": [
        0.9716429710388184,
        0.9559569954872131
      ],
      "min": [
        0.1838189959526062,
        0.20192000269889832
      ],
      "type": "VEC2"
    },
    {
      "bufferView": 0,
      "byteOffset": 19044,
      "componentType": 5125,
      "count": 2730,
      "type": "SCALAR"
    },
    {
      "bufferView": 2,
      "byteOffset": 48072,
      "componentType": 5126,
      "count": 248,
      "max": [
        0.5668860077857971,
        -0.4221859872341156,
        0.3350070118904114
      ],
      "min": [
        0.4240640103816986,
        -0.4293990135192871,
        0.217290997505188
      ],
      "type": "VEC3"
    },
    {
      "bufferView": 2,
      "byteOffset": 51048,
      "componentType": 5126,
      "count": 248,
      "max": [
        0.6213359236717224,
        0.9999490976333618,
        0.6230075359344482
      ],
      "min": [
        -0.6212143301963806,
        0.7807736396789551,
        -0.6247894763946533
      ],
      "type": "VEC3"
    },
    {
      "bufferView": 1,
      "byteOffset": 16024,
      "componentType": 5126,
      "count": 248,
      "max": [
        0.9618290066719055,
        0.8834750056266785
      ],
      "min": [
        0.031318001449108124,
        0.11652500182390213
      ],
      "type": "VEC2"
    },
    {
      "bufferView": 0,
      "byteOffset": 29964,
      "componentType": 5125,
      "count": 1389,
      "type": "SCALAR"
    },
    {
      "bufferView": 2,
      "byteOffset": 54024,
      "componentType": 5126,
      "count": 67,
      "max": [
        0.5002999901771545,
        -0.4093109965324402,
        0.12589499354362488
      ],
      "min": [
        0.4957920014858246,
        -0.4098599851131439,
        0.12137799710035324
      ],
      "type": "VEC3"
    },
    {
      "bufferView": 2,
      "byteOffset": 54828,
      "componentType": 5126,
      "count": 67,
      "max": [
        0.09780193865299225,
        0.9926222562789917,
        0.07209935039281845
      ],
      "min": [
        0.09770148247480392,
        0.992591142654419,
        0.07170141488313675
      ],
      "type": "VEC3"
    },
    {
      "bufferView": 1,
      "byteOffset": 18008,
      "componentType": 5126,
      "count": 67,
      "max": [
        0.21780799329280853,
        0.933601975440979
      ],
      "min": [
        0.21288299560546875,
        0.928646981716156
      ],
      "type": "VEC2"
    },
    {
      "bufferView": 0,
      "byteOffset": 35520,
      "componentType": 5125,
      "count": 90,
      "type": "SCALAR"
    },
    {
      "bufferView": 2,
      "byteOffset": 55632,
      "componentType": 5126,
      "count": 3190,
      "max": [
        0.6516770124435425,
        -0.34044700860977173,
        0.37003999948501587
      ],
      "min": [
        0.3483229875564575,
        -0.6438019871711731,
        0.0018990000244230032
      ],
      "type": "VEC3"
    },
    {
      "bufferView": 2,
      "byteOffset": 93912,
      "componentType": 5126,
      "count": 3190,
      "max": [
        1.0,
        1.0,
        1.0
      ],
      "min": [
        -1.0,
        -1.0,
        -1.0
      ],
      "type": "VEC3"
    },
    {
      "bufferView": 1,
      "byteOffset": 18544,
      "componentType": 5126,
      "count": 3190,
      "max": [
        0.9700270295143127,
        0.9822520017623901
      ],
      "min": [
        0.009557999670505524,
        0.009557999670505524
      ],
      "type": "VEC2"
    },
    {
      "bufferView": 0,
      "byteOffset": 35880,
      "componentType": 5125,
      "count": 12372,
      "type": "SCALAR"
    }
  ],
  "asset": {
    "extras": {
      "author": "GeniusPilot2016 (https://sketchfab.com/GeniusPilot2016)",
      "license": "CC-BY-4.0 (http://creativecommons.org/licenses/by/4.0/)",
      "source": "https://sketchfab.com/3d-models/toy-robot-blue-382c8186f3004606b1536013c9e87e52",
      "title": "Toy Robot (Blue)"
    },
    "generator": "Sketchfab-16.10.0",
    "version": "2.0"
  },
  "bufferViews": [
    {
      "buffer": 0,
      "byteLength": 85368,
      "name": "floatBufferViews",
      "target": 34963
    },
    {
      "buffer": 0,
      "byteLength": 44064,
      "byteOffset": 85368,
      "byteStride": 8,
      "name": "floatBufferViews",
      "target": 34962
    },
    {
      "buffer": 0,
      "byteLength": 132192,
      "byteOffset": 129432,
      "byteStride": 12,
      "name": "floatBufferViews",
      "target": 34962
    }
  ],
  "buffers": [
    {
      "byteLength": 261624,
      "uri": "scene.bin"
    }
  ],
  "images": [
    {
      "uri": "textures/display_baseColor.png"
    }
  ],
  "materials": [
    {
      "doubleSided": true,
      "name": "body",
      "pbrMetallicRoughness": {
        "metallicFactor": 0.0,
        "roughnessFactor": 0.8063508326896291
      }
    },
    {
      "doubleSided": true,
      "name": "body_2",
      "pbrMetallicRoughness": {
        "baseColorFactor": [
          0.219522,
          0.737923,
          0.6583869999999999,
          1.0
        ],
        "metallicFactor": 0.0,
        "roughnessFactor": 0.8063508326896291
      }
    },
    {
      "doubleSided": true,
      "name": "body_3",
      "pbrMetallicRoughness": {
        "baseColorFactor": [
          0.477053,
          0.737997,
          0.619682,
          1.0
        ],
        "metallicFactor": 0.0,
        "roughnessFactor": 0.8063508326896291
      }
    },
    {
      "doubleSided": true,
      "emissiveFactor": [
        1.0,
        1.0,
        1.0
      ],
      "emissiveTexture": {
        "index": 0
      },
      "name": "display",
      "pbrMetallicRoughness": {
        "baseColorTexture": {
          "index": 0
        },
        "metallicFactor": 0.0,
        "roughnessFactor": 0.0
      }
    },
    {
      "doubleSided": true,
      "name": "microphone",
      "pbrMetallicRoughness": {
        "baseColorFactor": [
          0.0,
          0.0,
          0.0,
          1.0
        ],
        "metallicFactor": 0.0,
        "roughnessFactor": 0.8063508326896291
      }
    }
  ],
  "meshes": [
    {
      "name": "Object_0",
      "primitives": [
        {
          "attributes": {
            "NORMAL": 1,
            "POSITION": 0,
            "TEXCOORD_0": 2
          },
          "indices": 3,
          "material": 1,
          "mode": 4
        }
      ]
    },
    {
      "name": "Object_1",
      "primitives": [
        {
          "attributes": {
            "NORMAL": 5,
            "POSITION": 4,
            "TEXCOORD_0": 6
          },
          "indices": 7,
          "material": 2,
          "mode": 4
        }
      ]
    },
    {
      "name": "Object_2",
      "primitives": [
        {
          "attributes": {
            "NORMAL": 9,
            "POSITION": 8,
            "TEXCOORD_0": 10
          },
          "indices": 11,
          "material": 3,
          "mode": 4
        }
      ]
    },
    {
      "name": "Object_3",
      "primitives": [
        {
          "attributes": {
            "NORMAL": 13,
            "POSITION": 12,
            "TEXCOORD_0": 14
          },
          "indices": 15,
          "material": 4,
          "mode": 4
        }
      ]
    },
    {
      "name": "Object_4",
      "primitives": [
        {
          "attributes": {
            "NORMAL": 17,
            "POSITION": 16,
            "TEXCOORD_0": 18
          },
          "indices": 19,
          "material": 0,
          "mode": 4
        }
      ]
    }
  ],
  "nodes": [
    {
      "children": [
        1
      ],
      "matrix": [
        1.0,
        0.0,
        0.0,
        0.0,
        0.0,
        2.220446049250313e-16,
        -1.0,
        0.0,
        0.0,
        1.0,
        2.220446049250313e-16,
        0.0,
        0.0,
        0.0,
        0.0,
        1.0
      ],
      "name": "Sketchfab_model"
    },
    {
      "children": [
        2,
        3,
        4,
        5,
        6
      ],
      "name": "toy_robot.obj.cleaner.materialmerger.gles"
    },
    {
      "mesh": 0,
      "name": "Object_2"
    },
    {
      "mesh": 1,
      "name": "Object_3"
    },
    {
      "mesh": 2,
      "name": "Object_4"
    },
    {
      "mesh": 3,
      "name": "Object_5"
    },
    {
      "mesh": 4,
      "name": "Object_6"
    }
  ],
  "samplers": [
    {
      "magFilter": 9728,
      "minFilter": 9986,
      "wrapS": 10497,
      "wrapT": 10497
    }
  ],
  "scene": 0,
  "scenes": [
    {
      "name": "Sketchfab_Scene",
      "nodes": [
        0
      ]
    }
  ],
  "textures": [
    {
      "sampler": 0,
      "source": 0
    }
  ]
}
